<mxfile host="app.diagrams.net" modified="2023-05-11T17:58:32.799Z" agent="Mozilla/5.0 (Windows NT 10.0; Win64; x64; rv:109.0) Gecko/20100101 Firefox/113.0" etag="P10qdmK7G-RxLtRboIPd" version="21.2.9">
  <diagram name="Page-1" id="E3r3FxvWlwkXgbKaJS2K">
    <mxGraphModel dx="1434" dy="754" grid="1" gridSize="10" guides="1" tooltips="1" connect="1" arrows="1" fold="1" page="1" pageScale="1" pageWidth="827" pageHeight="1169" math="0" shadow="0">
      <root>
        <mxCell id="0" />
        <mxCell id="1" parent="0" />
        <mxCell id="rKxEVOvBfXy6eXhgYals-1" value="&lt;div&gt;&lt;span style=&quot;font-weight: normal;&quot;&gt;&amp;lt;&amp;lt;Abstract&amp;gt;&amp;gt;&lt;/span&gt;&lt;/div&gt;&lt;div&gt;Vehicle&lt;/div&gt;" style="swimlane;fontStyle=1;align=center;verticalAlign=top;childLayout=stackLayout;horizontal=1;startSize=40;horizontalStack=0;resizeParent=1;resizeParentMax=0;resizeLast=0;collapsible=1;marginBottom=0;whiteSpace=wrap;html=1;" vertex="1" parent="1">
          <mxGeometry x="334" y="500" width="160" height="126" as="geometry" />
        </mxCell>
        <mxCell id="rKxEVOvBfXy6eXhgYals-2" value="&lt;div&gt;- registration: String&lt;/div&gt;&lt;div&gt;- manufacturer: String&lt;br&gt;&lt;/div&gt;" style="text;strokeColor=none;fillColor=none;align=left;verticalAlign=top;spacingLeft=4;spacingRight=4;overflow=hidden;rotatable=0;points=[[0,0.5],[1,0.5]];portConstraint=eastwest;whiteSpace=wrap;html=1;" vertex="1" parent="rKxEVOvBfXy6eXhgYals-1">
          <mxGeometry y="40" width="160" height="36" as="geometry" />
        </mxCell>
        <mxCell id="rKxEVOvBfXy6eXhgYals-3" value="" style="line;strokeWidth=1;fillColor=none;align=left;verticalAlign=middle;spacingTop=-1;spacingLeft=3;spacingRight=3;rotatable=0;labelPosition=right;points=[];portConstraint=eastwest;strokeColor=inherit;" vertex="1" parent="rKxEVOvBfXy6eXhgYals-1">
          <mxGeometry y="76" width="160" height="8" as="geometry" />
        </mxCell>
        <mxCell id="rKxEVOvBfXy6eXhgYals-4" value="&lt;div&gt;+ getRegistration(): String&lt;/div&gt;&lt;div&gt;+ getManufacturer(): String&lt;/div&gt;" style="text;strokeColor=none;fillColor=none;align=left;verticalAlign=top;spacingLeft=4;spacingRight=4;overflow=hidden;rotatable=0;points=[[0,0.5],[1,0.5]];portConstraint=eastwest;whiteSpace=wrap;html=1;" vertex="1" parent="rKxEVOvBfXy6eXhgYals-1">
          <mxGeometry y="84" width="160" height="42" as="geometry" />
        </mxCell>
        <mxCell id="rKxEVOvBfXy6eXhgYals-34" style="edgeStyle=elbowEdgeStyle;rounded=0;orthogonalLoop=1;jettySize=auto;html=1;entryX=0.5;entryY=1;entryDx=0;entryDy=0;dashed=1;dashPattern=8 8;endArrow=block;endFill=0;strokeWidth=2;" edge="1" parent="1" target="rKxEVOvBfXy6eXhgYals-1">
          <mxGeometry relative="1" as="geometry">
            <mxPoint x="413" y="670" as="sourcePoint" />
          </mxGeometry>
        </mxCell>
        <mxCell id="rKxEVOvBfXy6eXhgYals-5" value="Van" style="swimlane;fontStyle=1;align=center;verticalAlign=top;childLayout=stackLayout;horizontal=1;startSize=26;horizontalStack=0;resizeParent=1;resizeParentMax=0;resizeLast=0;collapsible=1;marginBottom=0;whiteSpace=wrap;html=1;" vertex="1" parent="1">
          <mxGeometry x="320" y="670" width="186" height="130" as="geometry" />
        </mxCell>
        <mxCell id="rKxEVOvBfXy6eXhgYals-6" value="- payload: int" style="text;strokeColor=none;fillColor=none;align=left;verticalAlign=top;spacingLeft=4;spacingRight=4;overflow=hidden;rotatable=0;points=[[0,0.5],[1,0.5]];portConstraint=eastwest;whiteSpace=wrap;html=1;" vertex="1" parent="rKxEVOvBfXy6eXhgYals-5">
          <mxGeometry y="26" width="186" height="26" as="geometry" />
        </mxCell>
        <mxCell id="rKxEVOvBfXy6eXhgYals-7" value="" style="line;strokeWidth=1;fillColor=none;align=left;verticalAlign=middle;spacingTop=-1;spacingLeft=3;spacingRight=3;rotatable=0;labelPosition=right;points=[];portConstraint=eastwest;strokeColor=inherit;" vertex="1" parent="rKxEVOvBfXy6eXhgYals-5">
          <mxGeometry y="52" width="186" height="8" as="geometry" />
        </mxCell>
        <mxCell id="rKxEVOvBfXy6eXhgYals-8" value="&lt;div&gt;+ Van(String, String, int)&lt;/div&gt;&lt;div&gt;+ calculateBasicTripCost(): int&lt;/div&gt;&lt;div&gt;+ toString(): String&lt;/div&gt;&lt;div&gt;+ getPayload(): int&lt;br&gt;&lt;/div&gt;" style="text;strokeColor=none;fillColor=none;align=left;verticalAlign=top;spacingLeft=4;spacingRight=4;overflow=hidden;rotatable=0;points=[[0,0.5],[1,0.5]];portConstraint=eastwest;whiteSpace=wrap;html=1;" vertex="1" parent="rKxEVOvBfXy6eXhgYals-5">
          <mxGeometry y="60" width="186" height="70" as="geometry" />
        </mxCell>
        <mxCell id="rKxEVOvBfXy6eXhgYals-36" style="edgeStyle=elbowEdgeStyle;rounded=0;orthogonalLoop=1;jettySize=auto;html=1;exitX=0.5;exitY=0;exitDx=0;exitDy=0;entryX=0;entryY=0.5;entryDx=0;entryDy=0;dashed=1;dashPattern=8 8;endArrow=block;endFill=0;strokeWidth=2;" edge="1" parent="1" source="rKxEVOvBfXy6eXhgYals-9" target="rKxEVOvBfXy6eXhgYals-4">
          <mxGeometry relative="1" as="geometry">
            <Array as="points">
              <mxPoint x="189" y="640" />
            </Array>
          </mxGeometry>
        </mxCell>
        <mxCell id="rKxEVOvBfXy6eXhgYals-9" value="Car" style="swimlane;fontStyle=1;align=center;verticalAlign=top;childLayout=stackLayout;horizontal=1;startSize=26;horizontalStack=0;resizeParent=1;resizeParentMax=0;resizeLast=0;collapsible=1;marginBottom=0;whiteSpace=wrap;html=1;" vertex="1" parent="1">
          <mxGeometry x="99" y="670" width="180" height="130" as="geometry" />
        </mxCell>
        <mxCell id="rKxEVOvBfXy6eXhgYals-10" value="- numberOfSeats: int" style="text;strokeColor=none;fillColor=none;align=left;verticalAlign=top;spacingLeft=4;spacingRight=4;overflow=hidden;rotatable=0;points=[[0,0.5],[1,0.5]];portConstraint=eastwest;whiteSpace=wrap;html=1;" vertex="1" parent="rKxEVOvBfXy6eXhgYals-9">
          <mxGeometry y="26" width="180" height="26" as="geometry" />
        </mxCell>
        <mxCell id="rKxEVOvBfXy6eXhgYals-11" value="" style="line;strokeWidth=1;fillColor=none;align=left;verticalAlign=middle;spacingTop=-1;spacingLeft=3;spacingRight=3;rotatable=0;labelPosition=right;points=[];portConstraint=eastwest;strokeColor=inherit;" vertex="1" parent="rKxEVOvBfXy6eXhgYals-9">
          <mxGeometry y="52" width="180" height="8" as="geometry" />
        </mxCell>
        <mxCell id="rKxEVOvBfXy6eXhgYals-12" value="&lt;div&gt;+ Car(String, String, int)&lt;/div&gt;&lt;div&gt;+ calculateBasicTripCost(): int&lt;/div&gt;&lt;div&gt;+ toString(): String&lt;/div&gt;&lt;div&gt;+ getNumberOfSeats(): int&lt;br&gt;&lt;/div&gt;&lt;div&gt;&lt;br&gt;&lt;/div&gt;" style="text;strokeColor=none;fillColor=none;align=left;verticalAlign=top;spacingLeft=4;spacingRight=4;overflow=hidden;rotatable=0;points=[[0,0.5],[1,0.5]];portConstraint=eastwest;whiteSpace=wrap;html=1;" vertex="1" parent="rKxEVOvBfXy6eXhgYals-9">
          <mxGeometry y="60" width="180" height="70" as="geometry" />
        </mxCell>
        <mxCell id="rKxEVOvBfXy6eXhgYals-35" style="edgeStyle=elbowEdgeStyle;rounded=0;orthogonalLoop=1;jettySize=auto;html=1;exitX=0.5;exitY=0;exitDx=0;exitDy=0;entryX=1;entryY=0.5;entryDx=0;entryDy=0;dashed=1;dashPattern=8 8;endArrow=block;endFill=0;strokeWidth=2;" edge="1" parent="1" source="rKxEVOvBfXy6eXhgYals-13" target="rKxEVOvBfXy6eXhgYals-4">
          <mxGeometry relative="1" as="geometry">
            <Array as="points">
              <mxPoint x="639" y="650" />
            </Array>
          </mxGeometry>
        </mxCell>
        <mxCell id="rKxEVOvBfXy6eXhgYals-13" value="Truck" style="swimlane;fontStyle=1;align=center;verticalAlign=top;childLayout=stackLayout;horizontal=1;startSize=26;horizontalStack=0;resizeParent=1;resizeParentMax=0;resizeLast=0;collapsible=1;marginBottom=0;whiteSpace=wrap;html=1;" vertex="1" parent="1">
          <mxGeometry x="549" y="670" width="180" height="130" as="geometry" />
        </mxCell>
        <mxCell id="rKxEVOvBfXy6eXhgYals-14" value="- numTrailers: int" style="text;strokeColor=none;fillColor=none;align=left;verticalAlign=top;spacingLeft=4;spacingRight=4;overflow=hidden;rotatable=0;points=[[0,0.5],[1,0.5]];portConstraint=eastwest;whiteSpace=wrap;html=1;" vertex="1" parent="rKxEVOvBfXy6eXhgYals-13">
          <mxGeometry y="26" width="180" height="26" as="geometry" />
        </mxCell>
        <mxCell id="rKxEVOvBfXy6eXhgYals-15" value="" style="line;strokeWidth=1;fillColor=none;align=left;verticalAlign=middle;spacingTop=-1;spacingLeft=3;spacingRight=3;rotatable=0;labelPosition=right;points=[];portConstraint=eastwest;strokeColor=inherit;" vertex="1" parent="rKxEVOvBfXy6eXhgYals-13">
          <mxGeometry y="52" width="180" height="8" as="geometry" />
        </mxCell>
        <mxCell id="rKxEVOvBfXy6eXhgYals-16" value="&lt;div&gt;+ Truck(String, String, int)&lt;/div&gt;&lt;div&gt;+ calculateBasicTripCost(): int&lt;br&gt;&lt;/div&gt;&lt;div&gt;+ toString(): String&lt;br&gt;&lt;/div&gt;&lt;div&gt;+ getNumTrailers(): int&lt;br&gt;&lt;/div&gt;" style="text;strokeColor=none;fillColor=none;align=left;verticalAlign=top;spacingLeft=4;spacingRight=4;overflow=hidden;rotatable=0;points=[[0,0.5],[1,0.5]];portConstraint=eastwest;whiteSpace=wrap;html=1;" vertex="1" parent="rKxEVOvBfXy6eXhgYals-13">
          <mxGeometry y="60" width="180" height="70" as="geometry" />
        </mxCell>
        <mxCell id="rKxEVOvBfXy6eXhgYals-25" value="TollRoad" style="swimlane;fontStyle=1;align=center;verticalAlign=top;childLayout=stackLayout;horizontal=1;startSize=26;horizontalStack=0;resizeParent=1;resizeParentMax=0;resizeLast=0;collapsible=1;marginBottom=0;whiteSpace=wrap;html=1;" vertex="1" parent="1">
          <mxGeometry x="24" y="250" width="330" height="180" as="geometry" />
        </mxCell>
        <mxCell id="rKxEVOvBfXy6eXhgYals-26" value="&lt;div&gt;- customerAccount: HashMap&amp;lt;String, CustomerAccount&amp;gt;&lt;/div&gt;&lt;div&gt;- moneyMade: int&lt;br&gt;&lt;/div&gt;" style="text;strokeColor=none;fillColor=none;align=left;verticalAlign=top;spacingLeft=4;spacingRight=4;overflow=hidden;rotatable=0;points=[[0,0.5],[1,0.5]];portConstraint=eastwest;whiteSpace=wrap;html=1;" vertex="1" parent="rKxEVOvBfXy6eXhgYals-25">
          <mxGeometry y="26" width="330" height="34" as="geometry" />
        </mxCell>
        <mxCell id="rKxEVOvBfXy6eXhgYals-27" value="" style="line;strokeWidth=1;fillColor=none;align=left;verticalAlign=middle;spacingTop=-1;spacingLeft=3;spacingRight=3;rotatable=0;labelPosition=right;points=[];portConstraint=eastwest;strokeColor=inherit;" vertex="1" parent="rKxEVOvBfXy6eXhgYals-25">
          <mxGeometry y="60" width="330" height="8" as="geometry" />
        </mxCell>
        <mxCell id="rKxEVOvBfXy6eXhgYals-28" value="&lt;div&gt;+ TollRoad()&lt;/div&gt;&lt;div&gt;+ addCustomer()&lt;br&gt;&lt;/div&gt;&lt;div&gt;+ findCustomer(): CustomerAccount&lt;/div&gt;&lt;div&gt;+ chargeCustomer(String)&lt;/div&gt;&lt;div&gt;+ toString(): String&lt;br&gt;&lt;/div&gt;&lt;div&gt;+ getCustomerAccounts(): Map&amp;lt;String, CustomerAccount&amp;gt;&lt;br&gt;&lt;/div&gt;&lt;div&gt;+ getMoneyMade(): int&lt;/div&gt;&lt;div&gt;&lt;br&gt;&lt;/div&gt;" style="text;strokeColor=none;fillColor=none;align=left;verticalAlign=top;spacingLeft=4;spacingRight=4;overflow=hidden;rotatable=0;points=[[0,0.5],[1,0.5]];portConstraint=eastwest;whiteSpace=wrap;html=1;" vertex="1" parent="rKxEVOvBfXy6eXhgYals-25">
          <mxGeometry y="68" width="330" height="112" as="geometry" />
        </mxCell>
        <mxCell id="rKxEVOvBfXy6eXhgYals-29" value="CustomerAccount" style="swimlane;fontStyle=1;align=center;verticalAlign=top;childLayout=stackLayout;horizontal=1;startSize=26;horizontalStack=0;resizeParent=1;resizeParentMax=0;resizeLast=0;collapsible=1;marginBottom=0;whiteSpace=wrap;html=1;" vertex="1" parent="1">
          <mxGeometry x="540" y="190" width="266" height="340" as="geometry" />
        </mxCell>
        <mxCell id="rKxEVOvBfXy6eXhgYals-30" value="&lt;div&gt;- discounts: enum&lt;/div&gt;&lt;div&gt;- firstName: String&lt;/div&gt;&lt;div&gt;- lastName: String&lt;br&gt;&lt;/div&gt;&lt;div&gt;- balance: int&lt;br&gt;&lt;/div&gt;&lt;div&gt;- vehicle: Vehicle&lt;br&gt;&lt;/div&gt;- discount: discount" style="text;strokeColor=none;fillColor=none;align=left;verticalAlign=top;spacingLeft=4;spacingRight=4;overflow=hidden;rotatable=0;points=[[0,0.5],[1,0.5]];portConstraint=eastwest;whiteSpace=wrap;html=1;" vertex="1" parent="rKxEVOvBfXy6eXhgYals-29">
          <mxGeometry y="26" width="266" height="94" as="geometry" />
        </mxCell>
        <mxCell id="rKxEVOvBfXy6eXhgYals-31" value="" style="line;strokeWidth=1;fillColor=none;align=left;verticalAlign=middle;spacingTop=-1;spacingLeft=3;spacingRight=3;rotatable=0;labelPosition=right;points=[];portConstraint=eastwest;strokeColor=inherit;" vertex="1" parent="rKxEVOvBfXy6eXhgYals-29">
          <mxGeometry y="120" width="266" height="8" as="geometry" />
        </mxCell>
        <mxCell id="rKxEVOvBfXy6eXhgYals-32" value="&lt;div&gt;+ CustomerAccount(String, String, int, Vehicle)&lt;/div&gt;&lt;div&gt;+ activateStaffDiscount()&lt;/div&gt;&lt;div&gt;+ activateFriendAndFamilyDiscount()&lt;/div&gt;&lt;div&gt;+ deactivateDiscount()&lt;/div&gt;&lt;div&gt;- calculateDiscount(int) int&lt;/div&gt;&lt;div&gt;+ addFunds(int)&lt;/div&gt;&lt;div&gt;+ makeTrip(): int&lt;/div&gt;&lt;div&gt;+ compareTo(CustomerAccount): int&lt;/div&gt;&lt;div&gt;+ toString(): String&lt;/div&gt;&lt;div&gt;+ getFirstName(): String&lt;/div&gt;&lt;div&gt;+ getLastName(): String&lt;/div&gt;&lt;div&gt;+ getBalance(): String&lt;/div&gt;&lt;div&gt;+ getVehicle(): Vehicle&lt;/div&gt;&lt;div&gt;+ getDiscount(): enum&lt;br&gt;&lt;/div&gt;&lt;div&gt;&lt;br&gt;&lt;/div&gt;" style="text;strokeColor=none;fillColor=none;align=left;verticalAlign=top;spacingLeft=4;spacingRight=4;overflow=hidden;rotatable=0;points=[[0,0.5],[1,0.5]];portConstraint=eastwest;whiteSpace=wrap;html=1;" vertex="1" parent="rKxEVOvBfXy6eXhgYals-29">
          <mxGeometry y="128" width="266" height="212" as="geometry" />
        </mxCell>
        <mxCell id="rKxEVOvBfXy6eXhgYals-43" style="edgeStyle=orthogonalEdgeStyle;rounded=0;orthogonalLoop=1;jettySize=auto;html=1;exitX=0;exitY=0.5;exitDx=0;exitDy=0;entryX=0.5;entryY=0;entryDx=0;entryDy=0;startArrow=diamond;startFill=1;strokeWidth=2;" edge="1" parent="1" source="rKxEVOvBfXy6eXhgYals-32" target="rKxEVOvBfXy6eXhgYals-1">
          <mxGeometry relative="1" as="geometry" />
        </mxCell>
        <mxCell id="rKxEVOvBfXy6eXhgYals-45" value="&lt;div style=&quot;font-size: 14px;&quot;&gt;&lt;font style=&quot;font-size: 14px;&quot;&gt;1&lt;/font&gt;&lt;/div&gt;&lt;div style=&quot;font-size: 14px;&quot;&gt;&lt;font style=&quot;font-size: 14px;&quot;&gt;&lt;br&gt;&lt;/font&gt;&lt;/div&gt;" style="edgeLabel;html=1;align=center;verticalAlign=middle;resizable=0;points=[];" vertex="1" connectable="0" parent="rKxEVOvBfXy6eXhgYals-43">
          <mxGeometry x="-0.1485" y="4" relative="1" as="geometry">
            <mxPoint as="offset" />
          </mxGeometry>
        </mxCell>
        <mxCell id="rKxEVOvBfXy6eXhgYals-44" style="edgeStyle=orthogonalEdgeStyle;rounded=0;orthogonalLoop=1;jettySize=auto;html=1;exitX=1;exitY=0.5;exitDx=0;exitDy=0;entryX=0;entryY=0.5;entryDx=0;entryDy=0;strokeWidth=2;startArrow=diamond;startFill=1;" edge="1" parent="1" source="rKxEVOvBfXy6eXhgYals-26" target="rKxEVOvBfXy6eXhgYals-30">
          <mxGeometry relative="1" as="geometry" />
        </mxCell>
        <mxCell id="rKxEVOvBfXy6eXhgYals-47" value="&lt;font style=&quot;font-size: 14px;&quot;&gt;0...*&lt;/font&gt;" style="edgeLabel;html=1;align=center;verticalAlign=middle;resizable=0;points=[];" vertex="1" connectable="0" parent="rKxEVOvBfXy6eXhgYals-44">
          <mxGeometry x="-0.3889" relative="1" as="geometry">
            <mxPoint as="offset" />
          </mxGeometry>
        </mxCell>
      </root>
    </mxGraphModel>
  </diagram>
</mxfile>
